# xmcd
#
# Track frame offsets: 
#        150
#        21340
#        43828
#        60237
#        82665
#        106666
#        133354
#        155029
#        175410
#        196055
#
# Disc length: 2819 seconds
#
# Revision: 1
# Processed by: cddbd v1.5.2PL0 Copyright (c) Steve Scherf et al.
# Submitted via: ExactAudioCopy v1.3
#
DISCID=7c0b010a
DTITLE=Sinne Eeg - Dreams
DYEAR=2017
DGENRE=Jazz
TTITLE0=The Bitter End
TTITLE1=Head Over High Heels
TTITLE2=Love Song
TTITLE3=What Is This Thing Called Love
TTITLE4=Falling In Love With Love
TTITLE5=Dreams
TTITLE6=Aleppo
TTITLE7=Time To Go
TTITLE8=I'll Remember April
TTITLE9=Anything Goes
EXTD=YEAR: 2017
EXTT0=
EXTT1=
EXTT2=
EXTT3=
EXTT4=
EXTT5=
EXTT6=
EXTT7=
EXTT8=
EXTT9=
PLAYORDER=
